# xmcd
#
# Track frame offsets: 
#        150
#        20308
#        35117
#        48958
#        71281
#        91094
#        105521
#        123222
#        148295
#        161874
#        180925
#        198919
#        210798
#        229354
#        241409
#        260141
#
# Disc length: 3754 seconds
#
# Revision: 0
# Processed by: cddbd v1.5.2PL0 Copyright (c) Steve Scherf et al.
# Submitted via: ExactAudioCopy v0.99pb5
#
DISCID=d60ea810
DTITLE=Steve Strongman Band - Live At Thr Barn
DYEAR=2010
DGENRE=Blues
TTITLE0=Big Legged Woman
TTITLE1=Wastlin' My Time
TTITLE2=Woman Across The River
TTITLE3=Soul Searching
TTITLE4=Can't Back Down
TTITLE5=River
TTITLE6=Lie To You
TTITLE7=Take My Arms
TTITLE8=The Birthday Song
TTITLE9=Plain Hard Truth
TTITLE10=Can't Stop But I'm Tryin'
TTITLE11=Keep It Yourself
TTITLE12=Honey
TTITLE13=Just Sorry
TTITLE14=Shout It Out Loud
TTITLE15=Mean To Me
EXTD=
EXTT0=
EXTT1=
EXTT2=
EXTT3=
EXTT4=
EXTT5=
EXTT6=
EXTT7=
EXTT8=
EXTT9=
EXTT10=
EXTT11=
EXTT12=
EXTT13=
EXTT14=
EXTT15=
PLAYORDER=
